<?xml version="1.0" encoding="iso-8859-1"?>
<!-- Uploaded to: SVG Repo, www.svgrepo.com, Generator: SVG Repo Mixer Tools -->
<svg fill="#000000" version="1.1" id="Layer_1" xmlns="http://www.w3.org/2000/svg" xmlns:xlink="http://www.w3.org/1999/xlink" 
	 viewBox="0 0 511.999 511.999" xml:space="preserve">
<g>
	<g>
		<rect x="248.43" y="20.771" width="15.15" height="47.164"/>
	</g>
</g>
<g>
	<g>
		
			<rect x="294.84" y="51.521" transform="matrix(0.4198 -0.9076 0.9076 0.4198 131.1098 323.2903)" width="47.162" height="15.149"/>
	</g>
</g>
<g>
	<g>
		<rect x="186.011" y="35.518" transform="matrix(0.9076 -0.4198 0.4198 0.9076 -6.9255 86.7289)" width="15.15" height="47.162"/>
	</g>
</g>
<g>
	<g>
		
			<rect x="149.365" y="173.793" transform="matrix(0.4229 -0.9062 0.9062 0.4229 -72.4355 246.0279)" width="15.15" height="12.181"/>
	</g>
</g>
<g>
	<g>
		<rect x="167.19" y="197.88" transform="matrix(0.4229 -0.9062 0.9062 0.4229 -83.9752 276.0825)" width="15.15" height="12.181"/>
	</g>
</g>
<g>
	<g>
		
			<rect x="172.872" y="254.829" transform="matrix(0.4229 -0.9062 0.9062 0.4229 -132.3029 314.0963)" width="15.15" height="12.181"/>
	</g>
</g>
<g>
	<g>
		
			<rect x="110.234" y="263.492" transform="matrix(0.4229 -0.9062 0.9062 0.4229 -176.3015 262.3353)" width="15.15" height="12.181"/>
	</g>
</g>
<g>
	<g>
		
			<rect x="119.218" y="315.027" transform="matrix(0.4229 -0.9062 0.9062 0.4229 -217.8169 300.2174)" width="15.15" height="12.181"/>
	</g>
</g>
<g>
	<g>
		<path d="M505.592,432.085l-50.982-0.205l-37.484-80.319l10.657-15.02c16.061-22.637,18.748-52.325,7.008-77.477L359.57,97.882
			L256,146.216L152.432,97.882L77.208,259.064c-11.738,25.153-9.052,54.84,7.009,77.477l10.657,15.019L57.39,431.879l-50.98,0.205
			L0,445.819l97.297,45.408l6.408-13.735l-32.587-39.205l37.484-80.319l18.356-1.479c27.667-2.229,52.146-19.238,63.885-44.39
			L256,172.487l65.156,139.611c11.738,25.152,36.217,42.162,63.885,44.39l18.357,1.479l37.484,80.319l-32.587,39.206l6.408,13.735
			l97.296-45.408L505.592,432.085z M71.53,462.483l-32.949-15.377l20.101-0.082L71.53,462.483z M177.117,305.691
			c-9.439,20.226-29.124,33.905-51.373,35.697l-18.455,1.487l-10.714-15.1c-12.917-18.203-15.076-42.077-5.637-62.304l55.421-118.75
			c0.659,0.733,1.263,1.511,1.923,2.363c2.614,3.374,5.869,7.574,13.773,11.263c7.905,3.689,13.214,3.484,17.479,3.323
			c3.432-0.131,5.911-0.226,10.493,1.913c4.583,2.139,6.103,4.101,8.206,6.814c2.615,3.374,5.869,7.574,13.775,11.264
			c7.906,3.688,13.215,3.487,17.481,3.324c1.077-0.041,2.06-0.07,3.045-0.036L177.117,305.691z M239.219,172.621
			c-4.195-1.001-7.484-0.883-10.31-0.775c-3.431,0.129-5.911,0.225-10.495-1.914c-4.583-2.139-6.102-4.101-8.206-6.814
			c-2.615-3.374-5.869-7.574-13.775-11.263c-7.906-3.69-13.216-3.487-17.479-3.323c-3.432,0.13-5.912,0.226-10.493-1.913
			c-4.582-2.139-6.102-4.1-8.206-6.814c-1.732-2.235-3.754-4.833-7.214-7.404l6.712-14.383l86.179,40.219L239.219,172.621z
			 M276.815,174.776c-0.662,0.853-1.266,1.632-1.924,2.365l-8.822-18.904l86.18-40.219l8.818,18.896
			c-0.984,0.034-1.967,0.005-3.043-0.036c-4.267-0.165-9.576-0.367-17.48,3.323c-7.905,3.69-11.159,7.889-13.774,11.263
			c-2.103,2.715-3.623,4.675-8.204,6.813c-4.582,2.139-7.063,2.043-10.495,1.913c-4.265-0.166-9.574-0.367-17.481,3.324
			C282.682,167.204,279.429,171.401,276.815,174.776z M404.713,342.875l-18.455-1.487c-22.249-1.793-41.934-15.471-51.374-35.697
			l-53.311-114.23c3.461-2.572,5.483-5.17,7.216-7.405c2.104-2.715,3.624-4.675,8.207-6.814c4.583-2.14,7.061-2.045,10.495-1.913
			c4.268,0.164,9.574,0.366,17.481-3.324c7.904-3.69,11.158-7.889,13.773-11.263c2.103-2.715,3.622-4.675,8.205-6.814
			c4.582-2.139,7.061-2.042,10.494-1.913c2.825,0.108,6.115,0.226,10.309-0.774l53.311,114.231
			c9.439,20.226,7.279,44.1-5.637,62.303L404.713,342.875z M440.47,462.483l12.849-15.458l20.1,0.082L440.47,462.483z"/>
	</g>
</g>
<g>
	<g>
		
			<rect x="365.631" y="213.967" transform="matrix(0.9062 -0.4229 0.4229 0.9062 -58.8134 177.9823)" width="12.181" height="15.15"/>
	</g>
</g>
<g>
	<g>
		<rect x="331.16" y="180.871" transform="matrix(0.9062 -0.4229 0.4229 0.9062 -48.0515 160.3)" width="12.181" height="15.15"/>
	</g>
</g>
<g>
	<g>
		
			<rect x="319.951" y="224.345" transform="matrix(0.9062 -0.4229 0.4229 0.9062 -67.488 159.6385)" width="12.181" height="15.15"/>
	</g>
</g>
<g>
	<g>
		
			<rect x="354.603" y="276.631" transform="matrix(0.9062 -0.4229 0.4229 0.9062 -86.3481 179.1981)" width="12.181" height="15.15"/>
	</g>
</g>
<g>
	<g>
		
			<rect x="390.153" y="284.765" transform="matrix(0.9062 -0.4229 0.4229 0.9062 -86.4527 194.9959)" width="12.181" height="15.15"/>
	</g>
</g>
</svg>