<?xml version="1.0" encoding="utf-8"?>
<!-- Generator: Adobe Illustrator 27.5.0, SVG Export Plug-In . SVG Version: 6.00 Build 0)  -->
<svg version="1.1" xmlns="http://www.w3.org/2000/svg" xmlns:xlink="http://www.w3.org/1999/xlink" x="0px" y="0px"
	 viewBox="0 0 2200 2200" style="enable-background:new 0 0 2200 2200;" xml:space="preserve">
<g id="background">
	<rect style="fill:#FFFFFF;" width="2200" height="2200"/>
</g>
<g id="Objects">
	<path d="M1958.531,1355.941c-47.744-37.828-105.509-60.878-164.288-75.167c-57.952-14.088-117.283-21.727-176.726-25.747
		c-112.528-7.61-227.894,1.401-335.978,34.833c-68.672,21.241-136.417,53.24-194.525,97.116
		c-9.003-3.888-18.025-7.732-27.068-11.526c4.844-2.755,9.678-5.525,14.502-8.314c84.631-48.927,166.621-103.146,242.798-164.494
		c70.894-57.094,137.383-120.961,191.303-194.576c53.602-73.179,94.676-160.78,101.416-252.263
		c4.034-54.752-8.51-110.604-41.579-155.106c-29.616-39.856-70.383-71.176-114.762-93.022
		c-101.983-50.202-234.9-53.859-330.909,11.782c-73.245,50.078-124.144,133.535-151.418,216.672
		c-0.516,1.574-1.021,3.158-1.525,4.74c-15.624-23.235-34.749-44.231-57.018-62.408c-56.888-46.436-127.435-70.573-200.505-73.41
		c-69.507-2.7-135.316,19.923-192.23,59.048c-40.677,27.964-74.326,67.501-90.629,114.479
		c-25.245,72.744-12.689,159.118,28.877,223.681c56.067,87.088,159.815,126.837,254.063,157.298
		c45.529,14.715,91.768,27.417,136.679,43.99c2.313,0.854,4.622,1.719,6.927,2.597c1.205,0.46,2.405,0.939,3.612,1.395
		c5.038,2.134,10.124,4.143,15.13,6.354c9.174,4.052,18.217,8.42,26.992,13.281c3.679,2.038,7.312,4.16,10.88,6.387
		c0.834,0.521,1.66,1.054,2.488,1.584c1.982,1.409,3.988,2.777,5.939,4.229c6.833,5.085,13.303,10.679,19.116,16.913
		c1.014,1.087,1.999,2.199,2.971,3.323c0.078,0.14,1.603,2.051,2.212,2.88c2.358,3.21,4.499,6.56,6.472,10.02
		c6.404,11.227,25.657,12.613,36.904,10.713c7.362-1.243,27.61-7.198,20.953-18.869c-18.158-31.836-50.818-52.578-83.141-67.879
		c-40.923-19.372-84.616-32.578-127.783-45.886c-22.773-7.021-45.566-13.99-68.188-21.487c-11.459-3.798-22.874-7.728-34.215-11.867
		c-5.662-2.066-11.3-4.195-16.923-6.363c-0.227-0.087-0.816-0.318-1.411-0.551c-1.095-0.441-3.386-1.356-3.363-1.347
		c-2.941-1.191-5.873-2.401-8.798-3.631c-22.049-9.273-43.661-19.692-64.214-31.953c-4.37-2.607-8.694-5.297-12.951-8.086
		c-0.434-0.314-3.728-2.547-4.535-3.111c-2.748-1.92-5.468-3.881-8.156-5.884c-9.057-6.751-17.758-13.987-25.965-21.752
		c-26.648-25.215-46.454-56.819-59.134-93.036c-6.153-17.574-9.401-30.815-12.072-50.216c-2.64-19.178-3.228-38.668-1.38-57.948
		c3.81-39.746,20.255-80.629,45.795-110.497c8.123-9.5,17.051-18.302,26.57-26.4c9.803-8.34,20.455-16.082,29.685-21.778
		c12.702-7.838,25.956-14.768,39.56-20.903c6.862-3.095,13.849-6.008,18.211-7.56c7.231-2.573,14.601-4.656,22.06-6.455
		c0.084-0.02,0.155-0.038,0.23-0.056c0.08-0.015,0.156-0.029,0.246-0.047c1.72-0.329,3.44-0.659,5.165-0.96
		c3.92-0.683,7.856-1.27,11.805-1.76c3.421-0.424,6.849-0.747,10.281-1.056c0.17-0.007,0.35-0.015,0.541-0.023
		c2.272-0.097,4.543-0.196,6.817-0.254c7.24-0.182,14.472-0.038,21.703,0.309c-1.232-0.017,6.61,0.551,7.71,0.667
		c4.665,0.491,9.319,1.094,13.956,1.801c3.728,0.568,7.445,1.211,11.148,1.917c1.317,0.251,2.635,0.511,3.95,0.782
		c0.4,0.105,2.375,0.563,2.754,0.659c8.28,2.109,16.503,4.325,24.617,7.017c3.601,1.194,7.174,2.467,10.73,3.789
		c4.954,1.843,2.934,1.144,1.866,0.712c1.753,0.708,3.497,1.45,5.233,2.201c7.786,3.371,15.427,7.081,22.868,11.158
		c52.916,28.998,95.814,76.451,118.389,132.562c5.61,13.943,9.918,28.275,12.964,42.988c2.566,12.395,19.145,15.588,30,15.339
		c8.518-0.195,30.206-2.645,30-15.339c-0.591-36.312,7.88-72.185,19.681-106.028c14.619-41.925,34.968-82.088,60.537-118.404
		c12.527-17.792,25.954-33.957,41.507-49.248c7.776-7.646,15.929-14.913,24.472-21.693c4.066-3.228,8.22-6.345,12.462-9.338
		c4.756-3.355,5.111-3.599,10.989-7.125c9.36-5.614,19.085-10.403,29.087-14.752c0.477-0.208,0.798-0.351,1.009-0.45
		c0.368-0.119,0.986-0.328,1.986-0.681c2.379-0.838,4.753-1.676,7.156-2.445c6.054-1.939,12.209-3.564,18.405-4.983
		c1.528-0.35,3.927-0.847,7.177-1.443c3.674-0.674,7.361-1.28,11.057-1.821c3.647-0.534,7.303-1.009,10.967-1.41
		c1.555-0.17,3.112-0.326,4.669-0.473c1.039-0.098,3.86-0.31,4.333-0.359c6.606-0.373,13.235-0.496,19.848-0.415
		c3.499,0.043,6.996,0.15,10.491,0.313c0.854,0.04,1.707,0.091,2.56,0.137c0.519,0.062,3.606,0.309,4.239,0.369
		c48.335,4.634,95.759,22.043,136.833,51.282c40.819,29.057,74.208,67.168,89.679,115.531
		c16.159,50.514,10.133,107.172-4.026,157.406c-11.76,41.723-28.721,81.613-50.592,119.026
		c-43.907,75.11-103,138.729-167.801,196.638c-71.006,63.454-148.963,119.282-228.394,168.575
		c-25.515,15.834-51.362,31.139-77.502,45.932c-11.343-4.495-22.721-8.908-34.141-13.224
		c-123.954-46.848-253.333-82.54-385.494-95.641c-118.838-11.781-254.201-13.328-357.4,55.852
		c-43.269,29.006-76.358,72.322-85.261,124.454c-4.072,23.84-1.383,49.254,9.661,70.974c12.735,25.044,36.109,43.17,61.149,54.872
		c29.149,13.622,60.87,20.913,92.305,27.02c31.623,6.143,63.744,9.5,95.931,10.636c67.053,2.367,133.973-7.155,198.919-23.358
		c76.225-19.017,150.173-47.472,222.242-78.452c64.231-27.611,127.201-58.239,188.66-91.605
		c11.92,4.976,23.801,10.045,35.645,15.199c-18.547,16.569-35.781,34.546-51.332,53.997
		c-34.266,42.859-57.487,97.796-47.455,153.392c4.733,26.229,15.479,49.988,33.35,69.855c18.437,20.497,43.819,32.09,70.597,36.993
		c47.396,8.677,107.859-5.226,131.954-50.894c10.475-19.854-48.209-26.441-57.857-8.155c-4.907,9.3-9.954,15.104-18.599,21.494
		c-0.203,0.15-0.357,0.266-0.485,0.364c-0.061,0.037-0.104,0.063-0.173,0.106c-0.915,0.565-1.844,1.11-2.783,1.634
		c-2.212,1.235-4.496,2.267-6.765,3.38c-0.121,0.059-0.226,0.112-0.322,0.16c-0.917,0.321-1.83,0.65-2.755,0.948
		c-1.389,0.448-2.819,0.789-4.204,1.246c-0.228,0.075-0.42,0.141-0.596,0.202c-2.471,0.302-4.958,0.765-7.425,1.108
		c-0.192,0.027-0.357,0.051-0.509,0.074c-0.397-0.015-0.887-0.027-1.513-0.037c-2.018-0.03-9.791-0.846-2.062,0.166
		c-2.957-0.387-5.908-0.712-8.858-1.171c-0.338-0.052-0.604-0.09-0.82-0.117c-0.402-0.143-0.98-0.337-1.795-0.594
		c-1.975-0.625-3.96-1.21-5.915-1.893c0.518,0.12-3.515-1.638-4.563-2.169c-1.792-0.909-6.382-3.568-6.267-3.492
		c-39.845-26.499-51.053-86-39.948-131.66c12.03-49.467,46.266-90.532,83.516-124.262c77.447,35.268,153.573,73.549,229.507,111.8
		c60.495,30.473,120.931,61.076,181.951,90.49c59.389,28.628,119.549,57.925,183.403,75.268
		c61.652,16.745,126.051,21.837,188.471,6.372c51.031-12.643,99.357-39.83,131.85-81.697
		C2086.454,1546.286,2039.783,1420.317,1958.531,1355.941z M686.591,635.902C685.073,635.99,682.866,636.063,686.591,635.902
		L686.591,635.902z M842.948,1443.484c-19.327,8.931-38.778,17.593-58.355,25.962c-9.383,4.011-18.795,7.955-28.237,11.826
		c-4.45,1.825-8.907,3.633-13.37,5.425c-1.899,0.762-3.8,1.518-5.701,2.275c0.156-0.066-3.996,1.577-5.146,2.026
		c-33.034,12.895-66.44,24.9-100.311,35.414c-52.408,16.268-103.696,27.997-158.571,32.789c-2.137,0.187-4.275,0.36-6.414,0.526
		c-0.308,0.024-0.553,0.043-0.771,0.06c-3.467,0.223-6.937,0.402-10.407,0.558c-7.922,0.354-15.851,0.551-23.781,0.581
		c-7.36,0.027-14.72-0.087-22.076-0.347c-4.195-0.148-8.387-0.355-12.578-0.585c0.015,0.001-1.309-0.085-2.243-0.143
		c-1.376-0.117-5.601-0.449-5.482-0.439c-30.101-2.594-59.749-7.569-86.88-14.557c-25.091-6.463-48.207-13.666-67.879-32.16
		c-17.136-16.11-25.451-38.574-25.826-61.81c-0.801-49.595,28.757-95.05,67.349-123.95c10.188-7.63,21.085-14.148,32.415-19.939
		c12.668-6.474,21.928-10.352,34.267-14.538c6.291-2.134,12.647-4.078,19.049-5.85c5.485-1.517,15.665-4.023,18.683-4.659
		c3.001-0.633,12.151-2.326,17.662-3.222c7.147-1.162,14.321-2.157,21.513-3c6.732-0.789,13.479-1.417,20.233-1.982
		c0.603-0.05,1.103-0.092,1.518-0.127c1.185-0.075,2.369-0.147,3.554-0.216c4.349-0.25,8.701-0.456,13.055-0.617
		c13.948-0.517,27.909-0.592,41.863-0.323c33.549,0.645,59.302,2.434,92.429,6.165c129.532,14.588,254.461,51.237,376.636,98.826
		c1.101,0.429,2.198,0.865,3.298,1.296C929.956,1401.659,886.751,1423.243,842.948,1443.484z M1369.969,1301
		C1372.653,1300.396,1371.144,1300.742,1369.969,1301L1369.969,1301z M1970.253,1611.327c-12.076,20.286-28.874,36.928-48.15,50.438
		c-7.812,5.474-19.361,11.784-29.575,16.485c-9.916,4.564-19.541,8.043-32.772,11.608c-2.922,0.787-5.86,1.501-8.804,2.202
		c-0.026,0.006-0.043,0.01-0.069,0.016c-1.393,0.281-2.788,0.558-4.185,0.815c-6.36,1.173-12.765,2.104-19.196,2.796
		c-1.537,0.165-6,0.522-5.903,0.554c-2.215,0.115-4.431,0.21-6.648,0.267c-7.603,0.196-15.207,0.024-22.802-0.349
		c-0.249-0.012-2.182-0.16-2.959-0.216c-1.248-0.108-2.495-0.218-3.742-0.339c-3.792-0.368-7.578-0.798-11.357-1.289
		c-8.095-1.052-16.152-2.391-24.161-3.967c-11.771-2.316-28.246-6.791-42.02-11.106c-62.043-19.436-120.634-49.359-178.898-77.82
		c-60.346-29.478-120.207-59.935-180.216-90.091c-71.289-35.825-142.883-71.165-215.605-103.962
		c35.264-27.185,73.746-49.441,114.786-67.454c23.012-10.1,45.818-18.279,71.818-25.979c12.91-3.823,25.929-7.276,39.03-10.379
		c3.173-0.751,6.351-1.477,9.532-2.194c0.526-0.118,0.949-0.214,1.324-0.298c1.274-0.27,2.548-0.535,3.823-0.798
		c6.867-1.416,13.753-2.741,20.655-3.975c27.306-4.882,54.859-8.358,82.507-10.58c1.098-0.088,5.503-0.412,6.436-0.49
		c2.734-0.178,5.47-0.348,8.206-0.501c7.082-0.396,14.168-0.712,21.256-0.95c13.717-0.462,27.444-0.629,41.168-0.522
		c13.72,0.108,27.439,0.491,41.144,1.142c3.777,0.179,7.552,0.378,11.327,0.598c1.415,0.082,2.829,0.168,4.244,0.256
		c0.43,0.027,2.332,0.151,3.438,0.223c0.615,0.044,1.204,0.086,1.303,0.093c1.881,0.143,3.763,0.283,5.644,0.432
		c3.759,0.297,7.516,0.614,11.271,0.95c27.581,2.471,55.081,5.951,82.402,10.472c29.767,4.926,53.292,9.88,83.094,19.086
		c27.06,8.358,51.52,18.387,76.634,32.872c46.346,26.731,83.269,66.804,103.279,116.687
		C1996.39,1513.117,1996.6,1567.07,1970.253,1611.327z"/>
</g>
</svg>
